<svg width="1651" height="332" viewBox="0 0 1651 332" fill="none" xmlns="http://www.w3.org/2000/svg">
<path fill-rule="evenodd" clip-rule="evenodd" d="M1352.9 45.8009C1352.9 52.988 1350.18 59.2507 1344.82 64.3816C1339.45 69.5314 1333.16 72.1346 1325.86 72.1346C1318.05 72.1346 1311.46 69.5314 1306.24 64.3816C1301.01 59.2507 1298.37 52.988 1298.37 45.8009C1298.37 38.8591 1301.01 32.7473 1306.24 27.6164C1311.46 22.4666 1318.05 19.8634 1325.86 19.8634C1330.94 19.8634 1335.52 21.033 1339.6 23.372C1343.75 25.7677 1346.96 28.8425 1349.31 32.6152C1351.69 36.4634 1352.9 40.8586 1352.9 45.8009ZM941.489 238.417L938.979 242.115C933.149 250.471 925.941 257.866 917.224 264.336C908.525 270.788 899.223 273.994 889.242 273.994C880.581 273.994 873.75 271.599 868.713 266.845C863.656 262.016 861.127 255.697 861.127 247.887C861.127 241.756 862.58 233.475 865.524 223.006L878.373 175.017C882.034 162.039 883.826 153.06 883.826 148.098C883.826 145.175 883.053 142.534 881.43 140.138C879.807 137.761 877.637 136.61 874.826 136.61C868.524 136.61 860.769 142.666 851.58 154.682C842.466 166.792 833.145 183.109 823.711 203.69C814.277 224.289 806.05 246.793 799.144 271.184H757.294L789.125 154.493C790.314 149.607 798.937 127.858 788.276 126.82C783.728 126.82 779.332 130.102 775.124 136.61C764.539 153.116 762.652 179.959 762.652 199.69C762.652 266.411 727.481 297.347 700.103 313.419C678.083 325.7 658.894 331.83 642.422 331.83C634.912 331.83 628.516 330.246 623.176 327.077C617.855 323.964 615.194 319.38 615.194 313.419C615.194 308.685 617.119 304.761 621.044 301.724C624.931 298.668 629.346 297.121 634.271 297.121C638.29 297.121 641.629 297.461 644.422 298.215C647.195 298.951 650.686 300.196 655.045 301.95C664.328 305.063 671.234 306.591 675.781 306.591C683.291 306.591 689.971 304.327 695.914 299.743C701.858 295.159 706.688 289.613 710.405 283.2C714.971 275.202 718.387 265.543 720.651 254.225C715.651 257.904 710.367 261.073 704.801 263.77C693.405 269.241 681.065 272.033 667.819 272.033C654.856 272.033 643.667 269.128 634.195 263.242C624.704 257.357 617.61 249.094 612.892 238.474C608.156 227.835 606.194 215.687 607.062 202.143C607.572 194.182 608.93 186.392 611.175 178.79C608.213 186.278 604.458 193.956 599.911 201.841C586.948 224.307 570.249 245.416 549.815 265.204C529.38 285.086 508.228 301.139 486.209 313.419C464.189 325.7 444.981 331.83 428.509 331.83C420.999 331.83 414.603 330.246 409.282 327.077C403.961 323.964 401.3 319.38 401.3 313.419C401.3 308.685 403.225 304.761 407.131 301.724C411.036 298.668 415.452 297.121 420.358 297.121C424.395 297.121 427.735 297.461 430.509 298.215C433.283 298.951 436.773 300.196 441.132 301.95C450.434 305.063 457.34 306.591 461.849 306.591C469.378 306.591 476.058 304.327 482.02 299.743C487.964 295.159 492.775 289.613 496.492 283.2C505.549 267.298 510.096 244.85 510.096 215.932C510.096 208.858 509.851 201.369 509.455 193.635C509.002 185.826 508.342 177.846 507.436 169.641C506.568 161.492 505.266 153.965 503.643 147.117C501.643 138.742 495.247 127.028 485.945 125.726C475.152 124.198 477.963 136.648 476.737 147.797C474.491 168.226 449.604 170.301 441.981 154.38C439.339 148.853 438.188 142.024 437.169 136.554C436.528 132.14 434.981 128.669 432.49 126.198C430.037 123.727 424.943 122.463 417.169 122.463C410.168 122.463 403.621 124.255 397.432 127.782C391.281 131.329 387.696 135.95 386.715 141.685C386.073 145.571 386.621 149.306 388.3 152.852C389.979 156.398 392.224 159.662 394.942 162.793C397.715 165.943 402.13 170.357 408.187 176.092C419.565 186.58 427.641 195.39 432.415 202.558C437.207 209.707 438.66 218.573 436.905 229.137C435.452 237.757 431.547 245.925 425.169 253.584C418.791 261.28 409.282 267.562 396.64 272.447C384.017 277.239 368.488 279.653 350.129 279.653C323.656 279.653 305.882 274.9 296.655 265.487C292.127 260.752 288.862 256.112 286.957 251.528L281.409 255.753C264.975 267.901 246.031 273.994 224.596 273.994C209.765 273.994 197.312 269.788 187.293 261.356C182.727 257.526 179.312 252.867 177.066 247.359C172.538 252.697 167.33 257.526 161.424 261.808C153.179 267.845 143.971 270.863 133.744 270.863C113.177 270.863 103.158 258.922 103.743 235.116C103.781 234.268 103.856 233.4 103.932 232.607C104.007 231.834 104.045 230.91 104.045 229.929C99.3842 236.418 93.5727 242.85 86.6668 249.208C79.7421 255.583 72.0814 260.771 63.7038 264.827C55.3827 268.845 46.9108 270.863 38.3444 270.863C25.627 270.863 15.9286 266.468 9.38116 257.677C2.83377 248.943 -0.298414 237.795 0.0223522 224.345C0.380855 209.839 3.39983 195.408 9.0604 180.902C14.721 166.415 22.2118 153.286 31.7027 141.402C41.1181 129.537 52.0053 120.086 64.2887 112.918C76.591 105.844 89.2707 102.298 102.365 102.298C112.328 102.298 119.781 104.203 124.687 108.07C129.593 111.88 133.782 116.672 137.367 122.444C143.631 101.958 159.839 60.307 155.745 45.9518C152.462 34.4639 154.499 34.2941 156.386 30.012L217.785 0L149.084 221.252C146.216 231.155 144.707 237.531 144.65 240.492C144.537 245.02 146.424 247.246 150.386 247.246C154.103 247.246 158.292 244.812 163.047 240.021C166.821 236.21 170.424 231.363 173.896 225.553L173.972 224.289C175.349 204.312 181.934 184.939 193.784 166.019C205.577 147.174 220.954 131.876 239.974 120.048C258.975 108.24 279.239 102.354 300.674 102.354C317.863 102.354 329.958 105.429 336.883 111.503C343.902 117.653 347.034 125.405 346.393 134.818C346.261 136.592 345.959 138.44 345.506 140.383C346.6 138.629 347.827 136.837 349.185 135.007C354.525 127.858 363.431 121.52 375.884 116.106C388.338 110.692 404.47 108.013 424.207 108.013C436.301 108.013 446.302 109.088 454.264 111.22C462.227 113.37 468.227 116.106 472.152 119.445C473.34 120.463 474.416 121.52 475.359 122.595C476.624 121.067 477.982 119.746 479.397 118.596C488.416 111.522 497.002 108.013 505.266 108.013C521.965 108.013 533.399 117.068 539.531 135.12C545.683 153.173 548.739 174.734 548.739 199.69C548.739 220.346 547.607 237.323 545.4 250.566C565.098 227.59 575.74 214.913 577.269 212.593C582.363 205.048 586.495 197.766 589.722 190.636C592.948 183.505 594.533 176.488 594.533 169.528C594.533 164.095 592.665 156.625 588.873 147.117C584.967 137.497 583.042 130.48 583.042 126.085C583.042 120.746 584.458 116.389 587.288 113.05C590.118 109.73 593.458 108.013 597.307 108.013C601.1 108.013 604.666 109.202 608.005 111.635C611.402 114.068 614.119 117.634 616.213 122.331C618.308 127.028 619.383 132.687 619.383 139.308C619.383 148.627 617.855 158.304 614.836 168.358C616.949 163.152 619.496 158.04 622.478 153.003C631.667 137.554 643.535 125.273 658.215 116.087C672.895 106.9 688.461 102.354 704.82 102.354C718.406 102.354 729.934 105.448 739.387 111.729C748.369 117.747 755.067 125.632 759.407 135.46C762.577 129.857 766.219 124.538 770.332 119.482C779.577 108.07 791.351 102.354 805.71 102.354C814.843 102.354 821.673 105.146 826.183 110.711C830.692 116.294 832.975 122.199 832.975 128.386C832.975 131.857 832.315 137.158 831.051 144.156C829.711 151.154 828.221 157.757 826.598 163.868L820.484 184.392C835.013 159.039 848.712 138.987 861.505 124.311C874.298 109.692 888.449 102.354 904.016 102.354C913.091 102.354 919.62 105.278 923.771 111.182C927.865 117.105 929.884 123.481 929.884 130.442C929.884 134.63 928.526 142.666 925.696 154.493L907.204 223.817C905.11 232.457 904.016 238.436 904.016 241.907C904.016 243.265 904.45 244.548 905.223 245.718C905.997 246.85 907.016 247.472 908.28 247.472C911.582 247.472 915.714 244.888 920.828 239.663C925.941 234.418 930.677 227.477 935.017 218.988H935.47C934.677 214.008 934.337 208.764 934.451 203.312C934.847 185.863 939.526 169.282 948.583 153.607C957.64 137.969 969.697 125.537 984.849 116.257C1000 106.976 1016.32 102.354 1033.68 102.354C1048.1 102.354 1060.45 105.504 1070.76 111.842C1076.7 115.521 1081.78 119.897 1085.97 124.972L1093.29 107.24H1135.17L1095.15 203.822C1094.51 205.689 1093.83 207.538 1093.1 209.367C1091.76 212.763 1090.27 216.083 1088.63 219.271L1085.51 226.628C1081.91 235.23 1079.95 240.455 1079.72 242.247C1079.53 243.926 1079.87 245.397 1080.85 246.604C1081.83 247.736 1083 248.34 1084.38 248.34C1101.31 247.415 1130.76 209.669 1137.67 192.692L1165.06 125.349H1144.42L1151.85 107.523H1172.38L1196.54 50.1961H1245.88L1221.82 107.523C1253.46 107.523 1338.6 95.0916 1318.12 149.664L1285.42 233.909C1283.22 239.663 1282.07 244.341 1282.07 247.944C1282.07 249.528 1282.71 251.094 1284.07 252.697C1285.42 254.206 1286.86 254.961 1288.37 254.961C1292.58 254.961 1296.88 252.829 1301.31 248.566C1305.82 244.265 1311.41 236.361 1318.12 224.836H1318.5C1320.5 217.158 1323.94 210.084 1328.77 203.652C1335.94 193.994 1345.94 183.92 1358.77 173.451C1369.09 165.113 1376.79 158.285 1382.01 153.041C1396.35 138.61 1397.26 129.952 1402.66 111.39C1406.69 97.657 1420.07 100.826 1420.41 111.277C1422.56 130.631 1459.85 166.453 1468.54 169.018L1468.75 166.962C1469.26 160.624 1468.75 153.324 1467.32 144.967C1465.9 138.082 1465.37 131.876 1465.81 126.367C1466.51 117.615 1468.94 111.465 1473.07 107.825C1477.28 104.165 1481.62 102.373 1486.09 102.373C1492.02 102.373 1496.73 105.184 1500.21 110.843C1503.62 116.502 1504.98 124.01 1504.24 133.46C1503.24 145.929 1499.47 159.322 1492.92 173.678C1494.34 171.112 1495.83 168.565 1497.43 166.019C1509.24 147.174 1524.62 131.876 1543.64 120.048C1562.64 108.24 1582.91 102.354 1604.34 102.354C1621.51 102.354 1633.61 105.429 1640.55 111.503C1647.55 117.653 1650.7 125.405 1650.06 134.818C1649.68 140.176 1647.74 146.325 1644.15 153.324C1640.57 160.341 1634.36 167.698 1625.57 175.507C1616.85 183.317 1604.59 190.277 1588.89 196.295C1573.19 202.294 1553.64 206.368 1530.34 208.575L1525.87 208.971C1524.51 214.197 1523.66 219.007 1523.36 223.478C1521.26 254.244 1572.91 263.525 1588.83 242.152C1592.76 236.871 1591.1 228.891 1591.02 221.685C1590.72 199.917 1614.06 196.503 1614.21 212.763C1615.21 221.667 1599.85 242.794 1589.32 251.811C1551.17 284.445 1473.39 286.199 1477.64 224.289C1478.3 214.498 1480.24 204.878 1483.39 195.371L1481.75 194.654C1474.21 207.01 1465.22 218.686 1454.9 229.721C1440.94 244.605 1425.62 256.602 1408.88 265.77C1392.2 274.938 1375.98 279.484 1360.09 279.484C1352.58 279.484 1345.41 278.107 1338.6 275.353C1331.71 272.598 1326.12 267.977 1321.84 261.488C1320.28 259.13 1319.03 256.508 1318.14 253.64C1316.14 255.942 1314.05 258.262 1311.82 260.582C1300.24 272.787 1285.71 278.899 1268.25 278.899C1256.44 278.899 1247.65 276.088 1241.78 270.523C1235.91 264.959 1232.99 258.375 1232.99 250.773C1232.99 243.02 1235.56 232.192 1240.76 218.403L1267.82 147.476C1281.33 119.501 1238.54 125.349 1214.27 125.349L1174.8 223.1C1171.87 230.004 1170.31 234.965 1170.04 238.097C1169.48 245.152 1173.8 250.886 1180.63 252.867C1191.69 256.074 1202.01 251.962 1209.33 242.152C1213.25 236.871 1211.59 228.891 1211.52 221.685C1211.21 199.917 1234.54 196.503 1234.69 212.763C1235.69 221.667 1220.33 242.794 1209.82 251.811C1194.74 264.695 1177.52 273.994 1157.23 273.994C1145.34 273.994 1136.33 270.75 1130.23 264.261C1124.76 258.451 1122.12 250.83 1122.32 241.473C1104.85 257.187 1080.95 273.994 1063.95 273.994C1052.74 273.994 1045.19 271.127 1041.38 265.411L1040.94 265.619C1029.1 271.184 1016.13 273.994 1002.06 273.994C988.32 273.994 976.32 271.033 965.999 265.091C955.678 259.149 947.753 250.792 942.281 240.04L941.489 238.417ZM1610.91 134.026C1611.21 129.744 1610.02 125.802 1607.42 122.199C1604.81 118.596 1601.06 116.785 1596.13 116.785C1587.42 116.785 1579.28 119.992 1571.55 126.349C1563.91 132.687 1557.28 140.1 1551.75 148.721C1546.15 157.342 1541.49 166.094 1537.77 174.96C1534 183.864 1531.66 189.334 1530.75 191.409C1556.25 186.92 1575.72 179.45 1589.25 168.886C1602.85 158.266 1610.06 146.646 1610.91 134.026ZM1415.26 130.914C1414.56 132.423 1413.73 134.026 1412.84 135.592C1408.37 143.609 1402.66 152.494 1395.67 162.359C1383.79 179.582 1375.41 193.032 1370.58 202.746C1365.84 212.461 1363.13 221.082 1362.54 228.608C1361.92 236.531 1364.03 242.322 1368.82 245.85C1373.6 249.415 1379.15 251.207 1385.5 251.207C1398.39 251.207 1411.15 246.397 1423.75 236.663C1436.34 226.948 1446.83 215.442 1455.11 202.011C1459.41 195.05 1462.71 188.58 1465 182.562C1449.77 169.773 1435.18 152.512 1422.18 131.366C1421.71 130.574 1421.17 129.801 1420.73 128.99C1419.77 127.179 1417.3 126.462 1415.26 130.914ZM1059.53 157.738C1059.79 145.571 1057.68 136.026 1053.19 129.14C1048.72 122.255 1041.96 118.803 1032.96 118.803C1024.11 118.803 1016.17 122.463 1009.11 129.744C1002.04 137.025 996.075 146.193 991.283 157.21C986.452 168.226 982.735 179.318 980.131 190.485C977.546 201.633 976.188 211.31 976.018 219.403C975.773 230.608 977.848 239.776 982.245 246.85C986.66 253.999 993 257.545 1001.36 257.545C1010.68 257.545 1018.93 253.942 1026.21 246.793C1033.51 239.644 1039.66 230.495 1044.53 219.478C1049.42 208.443 1053.08 197.219 1055.55 185.939C1058.02 174.583 1059.38 165.151 1059.53 157.738ZM339.6 155.003C335.902 161.51 329.996 168.32 321.92 175.507C313.203 183.317 300.919 190.277 285.221 196.295C269.522 202.294 249.974 206.368 226.672 208.575L222.2 208.971C220.841 214.197 220.011 219.007 219.69 223.478C219.03 233.155 220.766 240.115 224.86 244.322C228.936 248.528 235.257 250.66 243.691 250.66C258.333 250.66 272.9 244.133 287.41 231.023C288.938 227.929 291.146 225.081 294.051 222.478C298.957 218.064 304.844 215.857 311.656 215.857C325.335 215.857 331.807 224.402 330.92 241.511C330.6 248.774 331.77 254.602 334.355 258.809C336.958 263.016 343.411 265.147 353.733 265.147C362.733 265.147 370.507 262.94 377.035 258.545C383.564 254.074 387.413 248.396 388.545 241.511C389.168 237.833 388.79 234.286 387.394 230.759C386.073 227.194 382.734 222.855 377.413 217.781C368.035 208.896 360.412 201.086 354.45 194.333C348.506 187.523 344.317 180.978 341.713 174.753C339.128 168.49 338.449 161.869 339.6 155.003ZM127.178 145.948C127.385 137.61 125.536 130.706 121.593 125.33C117.687 119.954 112.46 117.256 105.951 117.256C95.5917 117.256 85.5536 122.84 75.8363 134.045C66.119 145.288 58.1942 158.738 52.0807 174.357C46.0428 190.032 42.8351 203.935 42.5332 216.083C42.3257 224.666 44.1182 230.834 47.9297 234.72C51.7977 238.587 56.3639 240.492 61.7226 240.492C69.704 240.492 77.5722 237.399 85.4026 231.155C93.2331 224.93 100.365 216.8 106.762 206.632C112.838 196.917 117.724 186.618 121.328 175.79C125.008 164.963 126.951 155.04 127.178 145.948ZM307.259 134.026C307.542 129.744 306.354 125.802 303.75 122.199C301.146 118.596 297.391 116.785 292.466 116.785C283.768 116.785 275.617 119.992 267.899 126.349C260.239 132.687 253.635 140.1 248.087 148.721C242.483 157.342 237.842 166.094 234.106 174.96C230.332 183.864 227.992 189.334 227.087 191.409C252.578 186.92 272.051 179.45 285.579 168.886C299.184 158.266 306.391 146.646 307.259 134.026ZM726.878 157.096C727.632 145.08 726.028 135.63 722.085 128.839C718.179 122.029 711.934 118.596 703.443 118.596C695.122 118.596 687.48 122.236 680.517 129.423C673.536 136.629 667.536 145.665 662.555 156.568C657.554 167.471 653.554 178.431 650.667 189.466C647.743 200.483 646.063 210.065 645.554 218.064C644.856 229.155 646.422 238.21 650.271 245.208C654.139 252.282 659.97 255.772 667.838 255.772C676.612 255.772 684.536 252.226 691.706 245.152C698.895 238.078 705.084 229.023 710.141 218.139C715.179 207.217 719.122 196.144 721.915 184.958C724.727 173.753 726.387 164.434 726.878 157.096Z" fill="#2E2E2E"/>
</svg>
