<svg width="25" height="25" viewBox="0 0 25 25" fill="none" xmlns="http://www.w3.org/2000/svg">
<path d="M12.1094 1.95312C17.7223 1.95312 22.2656 6.49556 22.2656 12.1094C22.2656 17.7223 17.7232 22.2656 12.1094 22.2656C6.49644 22.2656 1.95312 17.7232 1.95312 12.1094C1.95312 6.49644 6.49556 1.95312 12.1094 1.95312ZM12.1094 0C5.42153 0 0 5.42153 0 12.1094C0 18.7972 5.42153 24.2188 12.1094 24.2188C18.7972 24.2188 24.2188 18.7972 24.2188 12.1094C24.2188 5.42153 18.7972 0 12.1094 0ZM12.1094 4.6875C6.93169 2.73438 2.73438 6.93169 2.73438 12.1094C2.73438 17.2871 6.93169 21.4844 12.1094 21.4844C17.2871 21.4844 21.4844 17.2871 21.4844 12.1094C21.4844 6.93169 17.2871 2.73438 12.1094 2.73438V4.6875ZM12.1094 6.83594C13.0802 6.83594 13.8672 7.62295 13.8672 8.59375C13.8672 9.56455 13.0802 10.3516 12.1094 10.3516C11.1386 10.3516 10.3516 9.56455 10.3516 8.59375C10.3516 7.62295 11.1386 6.83594 12.1094 6.83594ZM17.8584 11.6222C16.4565 11.9532 15.148 12.2447 13.8477 12.394C13.8893 17.3268 14.4486 18.4024 15.0702 19.9927C15.2468 20.4449 15.0235 20.9545 14.5713 21.1312C14.1191 21.3078 13.6095 21.0844 13.4329 20.6323C13.0078 19.543 12.5986 18.6481 12.3459 16.7969H11.8729C11.6207 18.6451 11.2121 19.5414 10.7859 20.6323C10.6094 21.0842 10.0999 21.3079 9.64751 21.1312C9.19536 20.9545 8.97202 20.4448 9.14863 19.9927C9.76939 18.4038 10.3295 17.3296 10.3711 12.394C9.0709 12.2447 7.76235 11.9533 6.36035 11.6222C5.94043 11.523 5.68037 11.1023 5.77954 10.6823C5.87871 10.2624 6.29941 10.0023 6.71943 10.1015C11.4404 11.2162 12.7879 11.214 17.4995 10.1015C17.9193 10.0024 18.3402 10.2624 18.4394 10.6823C18.5384 11.1023 18.2784 11.5231 17.8584 11.6222Z" fill="#81817F"/>
</svg>
