<svg width="58" height="30" viewBox="0 0 58 30" fill="none" xmlns="http://www.w3.org/2000/svg">
<path d="M13.7841 13.2056C13.4669 12.1091 13.0772 10.1969 13.0772 10.1969H13.0319C13.0319 10.1969 12.6422 12.1091 12.325 13.2056L11.3191 16.6041H14.7719L13.7841 13.2056ZM55.825 0.5H30.45V29.5H55.825C57.0303 29.5 58 28.5303 58 27.325V2.675C58 1.46969 57.0303 0.5 55.825 0.5ZM53.65 11.375C53.65 11.9731 53.1606 12.4625 52.5625 12.4625H51.5294C50.9041 14.6013 49.5628 16.7581 47.6597 18.7972C48.4209 19.3772 49.2094 19.93 50.025 20.4284C50.5234 20.7366 50.6866 21.38 50.3966 21.8966L49.6806 23.1562C49.3725 23.6909 48.6928 23.8631 48.1672 23.5459C47.0253 22.8391 45.9469 22.0869 44.9591 21.2894C43.9713 22.0778 42.9019 22.8391 41.7509 23.5459C41.2253 23.8631 40.5456 23.6909 40.2375 23.1562L39.5216 21.8966C39.2316 21.3891 39.3947 20.7366 39.9022 20.4284C40.745 19.9119 41.5334 19.3681 42.2675 18.7972C41.5516 18.0359 40.9172 17.2566 40.3644 16.4681C40.0019 15.9516 40.165 15.2356 40.6997 14.9184L41.2888 14.565L41.9503 14.1753C42.4397 13.8853 43.0741 14.0213 43.4003 14.4834C43.8534 15.1178 44.3791 15.7522 44.9772 16.3775C46.2006 15.0906 47.1341 13.7584 47.6959 12.4625H37.3375C36.7394 12.4625 36.25 11.9731 36.25 11.375V9.925C36.25 9.32688 36.7394 8.8375 37.3375 8.8375H43.1375V7.3875C43.1375 6.78938 43.6269 6.3 44.225 6.3H45.675C46.2731 6.3 46.7625 6.78938 46.7625 7.3875V8.8375H52.5625C53.1606 8.8375 53.65 9.32688 53.65 9.925V11.375ZM0 2.675V27.325C0 28.5303 0.969688 29.5 2.175 29.5H27.55V0.5H2.175C0.969688 0.5 0 1.46969 0 2.675ZM5.33781 22.2591L10.5488 6.93438C10.7028 6.49031 11.1106 6.20031 11.5819 6.20031H14.5272C14.9894 6.20031 15.4062 6.49938 15.5603 6.93438L20.7712 22.2591C21.0069 22.9659 20.4903 23.7 19.7381 23.7H17.6628C17.4283 23.6998 17.2001 23.6239 17.0123 23.4834C16.8245 23.343 16.6871 23.1455 16.6206 22.9206L15.7688 20.0297H10.3131L9.48844 22.9116C9.3525 23.3737 8.92656 23.7 8.44625 23.7H6.37094C5.62781 23.7 5.10219 22.9659 5.33781 22.2591Z" fill="black" fill-opacity="0.47"/>
</svg>
